<svg xmlns="http://www.w3.org/2000/svg" width="200" height="200" viewBox="0 0 200 200">
  <defs>
    <style>
      .cls-1 {
        fill-rule: evenodd;
      }
    </style>
  </defs>
  <path class="cls-1" d="M179,82a64.607,64.607,0,0,1-1.407,12.811,78.232,78.232,0,0,1-3.165,11.7c-0.072.219-.148,0.438-0.222,0.657h0C159.942,149.379,117.64,200,100,200c-18.083,0-61.138-51.976-74.775-94.517a78.394,78.394,0,0,1-2.77-10.4A65.239,65.239,0,0,1,21,82c0-.34.021-0.652,0.026-0.986S21,80.34,21,80a79,79,0,0,1,158,0c0,0.34-.021.675-0.026,1.014S179,81.66,179,82ZM100,31a48.085,48.085,0,0,0-11.979,1.507A19.5,19.5,0,1,1,61.025,51,47.992,47.992,0,1,0,100,31Z"></path>
</svg>