<svg xmlns="http://www.w3.org/2000/svg" width="200" height="200" viewBox="0 0 200 200">
  <defs>
     <style>
      .cls-1 {
        fill-rule: evenodd;
      }
    </style>
  </defs>
  <path class="cls-1" d="M200,100a97.823,97.823,0,0,1-13.413,50.2A99.5,99.5,0,0,1,150.2,186.584,97.747,97.747,0,0,1,100,200a98.808,98.808,0,0,1-28.384-4.162q7.681-12.123,10.156-21.363,1.172-4.422,7.031-27.466,2.6,5.073,9.5,8.789a30.957,30.957,0,0,0,14.844,3.711,46.893,46.893,0,0,0,28.125-8.923q12.374-8.918,19.141-24.549t6.772-35.156a53.555,53.555,0,0,0-7.749-27.856Q151.695,50,136.978,41.8t-33.2-8.2a83.684,83.684,0,0,0-25.519,3.772A66.481,66.481,0,0,0,58.139,47.4,68.49,68.49,0,0,0,43.946,61.78a59.612,59.612,0,0,0-8.725,16.87,56.805,56.805,0,0,0-2.8,17.444q0,13.541,5.209,23.828a29.359,29.359,0,0,0,15.234,14.453q3.9,1.555,4.947-2.6c0.174-.611.522-1.953,1.041-4.041s0.87-3.381,1.044-3.906a5.953,5.953,0,0,0-1.434-5.6q-6.637-7.938-6.641-19.653A46.992,46.992,0,0,1,65.43,64.783q13.6-14.136,35.611-14.136,19.661,0,30.664,10.681t11,27.734q0,22.138-8.92,37.635t-22.851,15.491a15.932,15.932,0,0,1-12.76-5.664q-4.821-5.659-3-13.612,1.044-4.549,3.452-12.169t3.906-13.416a40.386,40.386,0,0,0,1.5-9.827,16.479,16.479,0,0,0-3.516-10.8q-3.516-4.3-10.028-4.3-8.07,0-13.672,7.422T71.225,98.3q0,9.513,3.253,15.894L61.588,168.616q-2.211,9.118-1.691,23.046a99.657,99.657,0,0,1-43.359-36.584A96.927,96.927,0,0,1,0,100,97.817,97.817,0,0,1,13.413,49.805,99.5,99.5,0,0,1,49.805,13.416,97.751,97.751,0,0,1,100,0a97.755,97.755,0,0,1,50.2,13.416,99.5,99.5,0,0,1,36.391,36.389A97.816,97.816,0,0,1,200,100Z"></path>
</svg>