<svg xmlns="http://www.w3.org/2000/svg" width="200" height="200" viewBox="0 0 200 200">
  <defs>
     <style>
      .cls-1 {
        fill-rule: evenodd;
      }
    </style>
  </defs>
  <path class="cls-1" d="M200,38.177a82.261,82.261,0,0,1-23.566,6.439,41.047,41.047,0,0,0,18.042-22.624,82.383,82.383,0,0,1-26.058,9.922A41.024,41.024,0,0,0,98.5,69.218,116.622,116.622,0,0,1,13.925,26.485a40.852,40.852,0,0,0,12.7,54.6A40.916,40.916,0,0,1,8.038,75.97c-0.006.171-.006,0.344-0.006,0.514a40.959,40.959,0,0,0,32.916,40.1,41.288,41.288,0,0,1-18.531.7,41.059,41.059,0,0,0,38.33,28.4A82.507,82.507,0,0,1,9.79,163.2,82.6,82.6,0,0,1,0,162.623,116.393,116.393,0,0,0,62.9,181c75.475,0,116.748-62.319,116.748-116.364q0-2.66-.119-5.289A83.177,83.177,0,0,0,200,38.177Z"></path>
</svg>