<svg xmlns="http://www.w3.org/2000/svg" width="200" height="200" viewBox="0 0 200 200">
  <defs>
     <style>
      .cls-1 {
        fill-rule: evenodd;
      }
    </style>
  </defs>
  <path class="cls-1" d="M82.342,1.214H71.18L63.646,30.576,55.812,1.214H44.2c2.329,6.934,4.749,13.892,7.078,20.829C54.813,32.474,57.022,40.335,58.02,45.7V75.977H69.063V45.7L82.342,1.214M97.129,19.6A13.464,13.464,0,0,0,85.551,25.3c-2.118,2.82-3.118,7.171-3.118,13.128V57.936c0,5.926,1,10.316,3.118,13.1a13.482,13.482,0,0,0,11.578,5.705,13.512,13.512,0,0,0,11.619-5.705c2.089-2.789,3.088-7.178,3.088-13.1V38.431c0-5.957-1-10.308-3.088-13.128A13.494,13.494,0,0,0,97.129,19.6m51.515,0.665h-9.951V62.849c-2.2,3.162-4.292,4.73-6.284,4.73-1.335,0-2.118-.806-2.335-2.368a24.082,24.082,0,0,1-.12-3.93V20.262h-9.922V64.32a28.652,28.652,0,0,0,.884,8.288c0.987,2.814,3.2,4.138,6.409,4.138,3.629,0,7.4-2.233,11.368-6.848v6.079h9.951V20.262M97.129,67.579c-3.2,0-4.743-2.581-4.743-7.733V36.406c0-5.152,1.54-7.727,4.743-7.727s4.754,2.575,4.754,7.727V59.847c0,5.152-1.54,7.733-4.754,7.733M82.342,1.214h0M178.107,103.3a20.7,20.7,0,0,0-17.619-16.235c-20.214-2.294-40.667-2.3-61.031-2.294s-40.823,0-61.036,2.294A20.685,20.685,0,0,0,20.814,103.3c-2.846,12.53-2.876,26.188-2.876,39.078s0,26.561,2.84,39.079A20.676,20.676,0,0,0,38.385,197.7c20.213,2.289,40.667,2.3,61.036,2.289,20.363,0.012,40.823,0,61.036-2.289a20.689,20.689,0,0,0,17.614-16.24c2.84-12.518,2.858-26.189,2.858-39.079S180.941,115.832,178.107,103.3ZM64.429,114.568h-11.8v63.577H41.671V114.568H30.087V104.15H64.429v10.418Zm29.763,63.577H84.329v-6.012c-3.912,4.553-7.63,6.775-11.253,6.775-3.171,0-5.362-1.313-6.348-4.108a28.275,28.275,0,0,1-.867-8.19v-43.6h9.845v40.592a29.319,29.319,0,0,0,.1,3.882c0.235,1.55.987,2.331,2.3,2.331,1.98,0,4.043-1.544,6.228-4.675v-42.13h9.863v55.13ZM131.6,161.6c0,5.1-.331,8.77-0.987,11.108-1.317,4.107-3.953,6.2-7.877,6.2-3.5,0-6.884-1.978-10.176-6.11v5.347h-9.85V104.15h9.85v24.168c3.178-3.966,6.554-5.981,10.176-5.981,3.924,0,6.56,2.094,7.877,6.226,0.656,2.221.987,5.865,0.987,11.083V161.6Zm37.177-9.2h-19.7v9.772c0,5.1,1.649,7.647,5.031,7.647,2.419,0,3.839-1.33,4.4-4a65.055,65.055,0,0,0,.216-6.768h10.05v1.458c0,3.217-.12,5.433-0.211,6.439a14.491,14.491,0,0,1-2.3,5.988c-2.727,4-6.771,5.975-11.91,5.975-5.157,0-9.08-1.886-11.926-5.652-2.089-2.753-3.166-7.1-3.166-12.963V140.976c0-5.889.951-10.192,3.046-12.981a13.93,13.93,0,0,1,11.8-5.658A13.6,13.6,0,0,1,165.735,128c2.058,2.789,3.045,7.092,3.045,12.981V152.4Zm-51.306-21.068a7.057,7.057,0,0,0-4.911,2.423v33.611a6.984,6.984,0,0,0,4.911,2.453c2.84,0,4.284-2.453,4.284-7.434V138.859C121.758,133.885,120.314,131.333,117.474,131.333Zm36.551,0q-4.938,0-4.941,7.648v5.1h9.851v-5.1C158.935,133.885,157.286,131.333,154.025,131.333Z"></path>
</svg>